<svg xmlns="http://www.w3.org/2000/svg" width="256" height="256"><path fill="#1976D2" fill-opacity=".016" fill-rule="evenodd" d="M0 128.004v128.004l128.25-.254 128.25-.254.254-127.75L257.008 0H0zm.485.496c0 70.4.119 99.053.265 63.672s.146-92.98 0-128S.485 58.1.485 128.5"/><path fill="#1976D2" fill-opacity=".147" fill-rule="evenodd" d="M65.314 45.326c-4.372 1.611-10.654 6.497-13.28 10.329C49.504 59.348 47 67.059 47 71.159c0 2.529-.357 2.846-3.25 2.89-6.253.093-22.758 1.626-23.295 2.163-.298.298.814 9.26 2.471 19.915a11785 11785 0 0 1 6.489 42.373C39.589 205.832 40.46 211 41.634 211c2.891 0 67.168-21.519 79.381-26.576 7.417-3.071 15.397-6.264 17.735-7.097s4.25-1.971 4.25-2.528-.679-.753-1.508-.434c-.829.318-9.717 2.66-19.75 5.205S95.85 186.689 86.5 189.735a7051 7051 0 0 1-28.681 9.274l-11.682 3.735-1.029-6.622c-.566-3.642-2.641-17.422-4.61-30.622s-4.485-29.85-5.59-37c-4.391-28.421-6.863-45.878-6.542-46.2.186-.186 4.78-.442 10.21-.569l9.871-.231.852 5.246c.742 4.57.585 5.586-1.223 7.885-2.464 3.131-2.565 4.523-.606 8.31 1.742 3.37 5.92 5.045 9.875 3.961 6.319-1.732 7.547-8.354 2.514-13.548-2.416-2.492-3.251-4.375-3.614-8.153l-.472-4.913 10.864-.672c5.974-.37 15.275-1.16 20.668-1.756s10.062-.826 10.377-.512c.315.315.922 2.487 1.35 4.826.632 3.455.42 4.707-1.127 6.674-2.709 3.444-2.371 6.84 1.018 10.229 4.272 4.272 10.617 3.423 12.967-1.734 1.686-3.701 1.405-4.801-2.39-9.343-1.925-2.304-3.506-5.159-3.514-6.345-.007-1.185-.265-3.091-.572-4.234-.528-1.967.07-2.152 10.975-3.408 6.344-.731 11.3-1.708 11.013-2.171-.286-.463-5.629-.842-11.873-.842h-11.353l-.644-3.809c-1.607-9.514-11.013-19.807-20.225-22.132-5.387-1.36-13.92-1.234-17.993.267m4.026 6.109c-8.59 2.686-13.502 8.473-14.967 17.632l-.679 4.25 9.403-.639c5.172-.351 14.916-.94 21.653-1.308 13.81-.755 14.04-.94 10.309-8.255-2.735-5.36-8.155-9.769-14.226-11.572-6.07-1.803-6.075-1.803-11.493-.108M12.173 88.25c-1.367 5.696-3.354 21.353-5.171 40.75a75884 75884 0 0 1-4.976 52.935C.912 193.725 0 204.421 0 205.706v2.335l3.914-1.997c10.103-5.154 19.437-4.949 26.689.586 2.526 1.929 4.82 3.28 5.097 3.004.276-.277-1.61-2.761-4.191-5.521-5.635-6.024-11.27-8.461-18.422-7.965-6.057.419-5.77 1.932-3.647-19.269 6.191-61.824 7.849-82.755 7.137-90.129-.411-4.263-1.071-7.75-1.465-7.75s-1.718 4.162-2.939 9.25m174.007 25.5c-.559 1.513-3.297 7.889-6.085 14.171-6.568 14.798-6.735 15.35-4.53 14.921.967-.188 2.286-1.917 2.932-3.842l1.175-3.5 6.914-.273 6.914-.274 1.676 4.024c1.342 3.222 2.188 4.023 4.25 4.023 1.416 0 2.574-.392 2.574-.872 0-.479-2.044-5.541-4.542-11.25-2.499-5.708-5.479-12.516-6.624-15.128s-2.431-4.75-2.859-4.75c-.429 0-1.236 1.237-1.795 2.75m55.128-1.74c-3.47 1.398-5.595 5.407-4.795 9.049.542 2.467 2.063 4.002 7.099 7.159 7.213 4.523 8.816 7.547 5.777 10.905-1.435 1.585-2.748 1.95-5.869 1.63-2.211-.227-4.807-.762-5.77-1.19-1.245-.553-1.75-.333-1.75.763 0 1.564.951 2.012 6.747 3.178 4.108.827 9.797-1.014 11.75-3.803 3.731-5.327 1.388-9.885-8.228-16.01-4.164-2.651-6.189-6.394-4.733-8.748.707-1.145 5.19-.872 10.214.622 1.804.536 2.25.274 2.25-1.323 0-2.907-7.669-4.256-12.692-2.232M52 127.5V143h5v-31h-5zm13 0V143h2.5c2.447 0 2.5-.162 2.5-7.573 0-9.652 1.14-9.574 8.31.57 5.349 7.568 6.991 8.77 9.649 7.064 1.436-.923.536-2.287-8.769-13.29-1.301-1.538-1.254-1.803.424-2.399 3.202-1.137 6.386-4.61 6.386-6.965 0-6.068-3.881-8.407-13.95-8.407H65zm29 0V143h9.441c5.72 0 9.706-.429 10.113-1.087 1.297-2.099-1.112-2.767-7.304-2.027l-6.25.747V128.11l4.75-.305c6.175-.396 6.14-2.216-.05-2.612l-4.801-.307.301-5.193.3-5.193 6.25.29c5.086.235 6.25.002 6.25-1.25 0-1.278-1.614-1.54-9.5-1.54H94zm26-.066c0 13.17.231 15.566 1.5 15.566 1.25 0 1.5-2.005 1.5-12.042v-12.042l10.005 12.542c5.503 6.898 10.228 12.542 10.5 12.542s.495-7.2.495-16c0-13.556-.229-16-1.5-16-1.239 0-1.5 1.845-1.5 10.604v10.604l-8.101-10.354c-5.668-7.244-8.822-10.449-10.5-10.67l-2.399-.317zm31 .066V143h10c9.348 0 10-.131 10-2.009 0-1.847-.462-1.961-5.75-1.416-3.162.325-6.312.765-7 .977-.911.281-1.25-1.37-1.25-6.083V128h5c3.778 0 5-.367 5-1.5 0-1.135-1.228-1.5-5.052-1.5h-5.053l.303-5.25.302-5.25 6.75.312c5.586.258 6.75.043 6.75-1.25 0-1.312-1.601-1.562-10-1.562h-10zm55-2.923c0 12.493.019 12.596 2.85 15.426 5.668 5.668 16.105 4.591 19.398-2.003 2.329-4.662 2.603-26 .334-26-1.132 0-1.486 2.543-1.75 12.591-.312 11.826-.475 12.706-2.693 14.5-3.288 2.659-7.706 2.433-10.684-.546-2.335-2.334-2.455-3.044-2.455-14.5V112h-5zm-134.75-9.915c-.784.317-1.25 2.524-1.25 5.921 0 5.378.022 5.417 3.066 5.417 4.856 0 6.934-1.613 6.934-5.38 0-5.022-4.119-7.826-8.75-5.958m112.982 10.16c-1.227 3.166-2.232 6.077-2.232 6.467 0 .391 2.298.711 5.107.711 3.684 0 4.968-.348 4.61-1.25-.274-.687-1.29-3.275-2.258-5.75s-2.038-4.823-2.377-5.218c-.34-.394-1.622 1.873-2.85 5.04M57 158c0 3.333.444 6 1 6 .55 0 1-1.073 1-2.383 0-1.596.743-2.617 2.25-3.089 2.163-.679 2.173-.732.25-1.367-2.947-.974-2.947-3.161 0-3.161 1.375 0 2.5-.45 2.5-1s-1.575-1-3.5-1H57zm37.197-.589c.307 5.691 2.04 7.755 2.619 3.12.443-3.544 2.184-3.17 2.184.469 0 1.65.45 3 1 3 1.368 0 1.269-6.331-.122-7.722-.617-.617-1.697-.901-2.4-.631-.758.291-1.217-.207-1.128-1.221.082-.941-.436-1.917-1.153-2.169-.992-.35-1.231.88-1 5.154M155.2 153.2c-1.838 1.838-1.445 3.409 1.3 5.208 1.375.901 2.5 2.078 2.5 2.615s-1.125.977-2.5.977-2.5.45-2.5 1c0 1.407 5.351 1.249 6.8-.2 1.796-1.796 1.508-2.632-2.023-5.856L155.554 154h2.782c1.6 0 2.519-.425 2.164-1-.847-1.371-3.842-1.258-5.3.2m-47.2.8c0 .55.45 1 1 1s1-.45 1-1-.45-1-1-1-1 .45-1 1m-36.75 1.662c-.687.278-1.25.965-1.25 1.528s.661.77 1.468.461c.807-.31 1.753-.103 2.101.46s-.313 1.271-1.468 1.573c-1.176.307-2.101 1.361-2.101 2.392 0 1.428.676 1.796 2.998 1.634 2.629-.184 2.998-.585 3-3.26.001-1.677-.538-3.59-1.198-4.25-1.279-1.279-1.595-1.327-3.55-.538m11.683.919c-1.185 1.428-1.057 1.9.96 3.534 2.284 1.849 2.289 1.885.218 1.885-1.161 0-2.111.45-2.111 1s1.077 1 2.393 1c3.445 0 4.236-2.982 1.406-5.302-1.778-1.457-1.883-1.75-.465-1.29 1.166.377 1.689.161 1.437-.595-.635-1.906-2.362-2.011-3.838-.232m35.817-.501c-1.928 1.123-2.418 6.389-.693 7.455 1.806 1.117 5.679-.416 6.213-2.459.491-1.88-1.66-6.108-3.077-6.046-.381.017-1.48.489-2.443 1.05m13.727-.397c-1.705.334-1.963 1.018-1.645 4.357.44 4.612 2.168 5.378 2.168.96 0-1.65.45-3 1-3s1 1.098 1 2.441c0 2.981 1.772 4.317 2.659 2.005.755-1.968-.71-6.698-2.159-6.971-.55-.103-1.91-.01-3.023.208m36.256 3.567c.652 5.113.708 5.192 2.974 4.257 1.204-.497 1.382-.893.543-1.207-1.515-.566-1.685-5.3-.191-5.3.582 0 .781-.45.441-1s-1.449-1-2.464-1c-1.59 0-1.771.589-1.303 4.25m12.017-3.17c-1.928 1.123-2.418 6.389-.693 7.455 1.806 1.117 5.679-.416 6.213-2.459.491-1.88-1.66-6.108-3.077-6.046-.381.017-1.48.489-2.443 1.05m14-.293c-1.309.269-1.75 1.35-1.75 4.286 0 2.16.45 3.927 1 3.927s1-1.312 1-2.917.518-3.089 1.15-3.3c1.809-.603.551-2.396-1.4-1.996m10 .293c-2.009 1.17-2.318 4.952-.55 6.72 1.453 1.453 4.8 1.593 4.8.2 0-.55-.9-1-2-1s-2-.45-2-1 1.125-1 2.5-1c2.663 0 3.284-1.816 1.3-3.8-1.433-1.433-1.778-1.443-4.05-.12M108 160c0 2.2.45 4 1 4s1-1.8 1-4-.45-4-1-4-1 1.8-1 4m11.667-2.333c-1.258 1.258-.667 4.333.833 4.333.933 0 1.5-.944 1.5-2.5 0-2.428-.974-3.193-2.333-1.833m62 0c-1.258 1.258-.667 4.333.833 4.333.933 0 1.5-.944 1.5-2.5 0-2.428-.974-3.193-2.333-1.833M205.5 158c-.34.55.11 1 1 1s1.34-.45 1-1-.79-1-1-1-.66.45-1 1"/><path fill="#1976D2" fill-opacity=".187" fill-rule="evenodd" d="M65.766 45.702C55.949 48.976 48 59.445 48 69.098v4.706l-5.75.569c-3.162.313-9.387.848-13.833 1.187l-8.083.619.827 5.16c.776 4.843 2.414 15.664 11.383 75.161 6.475 42.958 8.169 53.546 8.643 54.02.256.256 3.131-.401 6.389-1.462 46.984-15.289 63.147-20.809 74.924-25.586 7.7-3.124 15.075-6.095 16.389-6.604 1.313-.508 2.197-1.115 1.964-1.349-.922-.922-45.738 11.605-69.265 19.361-16.399 5.407-25.14 7.845-25.578 7.136-.366-.593-1.458-6.576-2.425-13.297-.968-6.72-3.248-21.894-5.068-33.719-8.71-56.594-10.856-71.994-10.134-72.717 1.022-1.024 18.884-2.204 19.894-1.314.427.376 1.046 2.967 1.377 5.757.451 3.812.196 5.65-1.027 7.396-5.362 7.655 4.228 16.864 11.462 11.007 3.566-2.888 3.206-8.672-.749-12.03-2.418-2.053-3.2-3.686-3.725-7.774l-.664-5.175 5.275-.535c2.9-.294 11.799-1.006 19.774-1.583 7.975-.576 15.446-1.304 16.601-1.617 1.886-.512 2.164-.047 2.706 4.526.484 4.093.196 5.787-1.464 8.6-1.805 3.06-1.908 3.887-.814 6.529.689 1.663 2.535 3.688 4.103 4.498 8.253 4.268 14.806-6.087 7.922-12.517-2.204-2.059-3.114-4.019-3.613-7.782l-.667-5.03 8.863-1.177c12.72-1.689 12.865-1.804 2.613-2.071-5.088-.133-9.793-.297-10.456-.366s-1.734-1.949-2.38-4.179c-3.114-10.755-10.33-18.823-19.479-21.778-6.343-2.048-11.956-2.038-18.169.034m2.361 5.796C60.277 53.946 54 62.143 54 69.945v4.024l5.75-.571c3.163-.314 12.95-.87 21.75-1.235l16-.663-.316-3c-.737-7.002-7.198-14.182-15.347-17.058-4.954-1.747-7.968-1.735-13.71.056M15.172 79.003c-4.09 11.936-4.691 16.66-11.634 91.497C2.109 185.9.676 200.595.354 203.155l-.586 4.654 5.362-2.654c4.39-2.173 6.749-2.655 13.001-2.655 7.086 0 7.978.245 12.364 3.392 5.139 3.688 5.04 1.804-.159-3.028-5.063-4.706-9.291-6.308-16.567-6.279l-6.731.027.492-3.556C7.8 191.1 8.943 179.375 10.07 167s3.054-33.3 4.281-46.5c1.502-16.152 2.03-26.943 1.613-33-.341-4.95-.697-8.774-.792-8.497M53 127.5c0 14.833.086 15.5 2 15.5s2-.667 2-15.5-.086-15.5-2-15.5-2 .667-2 15.5m12 .07v15.569l2.25-.319c2.067-.294 2.274-.915 2.545-7.635.379-9.397 1.792-9.307 8.667.554 4.255 6.104 5.484 7.23 7.91 7.244 3.263.019 3.46.436-4.084-8.642-2.359-2.838-4.288-5.552-4.288-6.031s1.34-1.377 2.978-1.996c4.145-1.564 5.906-5.648 3.945-9.143-2.143-3.816-5.522-5.14-13.173-5.156L65 112zm29.439-14.272c-.274.714-.372 7.577-.219 15.25l.28 13.952 9.25.288c8.113.252 9.25.08 9.25-1.394 0-1.477-.851-1.602-7-1.031l-7 .651V128h5c2.75 0 5-.45 5-1s-2.272-1-5.05-1H98.9l.3-5.75.3-5.75 6.75.219c5.369.174 6.75-.081 6.75-1.25 0-2.008-17.793-2.171-18.561-.171m26 0c-.929 2.422.034 28.701 1.061 28.955.604.149 1.198-4.451 1.5-11.611l.5-11.857 9.5 12.062c5.225 6.635 9.838 12.083 10.25 12.108s.75-6.93.75-15.455c0-18.067-1.782-21.529-2.217-4.308l-.283 11.192-8.807-11.192c-8.355-10.617-11.12-12.849-12.254-9.894M152 127.5V143h9c7.683 0 9-.241 9-1.644 0-1.43-.909-1.559-7-.993l-7 .651V128h4.941c6.754 0 7.445-1.817.835-2.197l-5.276-.303v-11l6.75.154c5.202.119 6.75-.167 6.75-1.25 0-1.101-1.939-1.404-9-1.404h-9zm30.039-3.25a3170 3170 0 0 0-6.691 15.5c-2.134 5.045.345 3.936 2.884-1.291l2.206-4.54 6.531.29 6.531.291 1.921 4.25c1.497 3.311 2.46 4.25 4.357 4.25 2.855 0 3.287 1.506-4.932-17.191-3.339-7.595-6.39-13.809-6.781-13.809-.39 0-3.102 5.513-6.026 12.25M206 123.032c0 16.619 2.014 19.968 12.011 19.968 4.351 0 5.593-.45 8.066-2.923 2.922-2.922 2.923-2.926 2.923-15.559 0-8.169-.353-12.418-1-12.018-.575.355-1 5.619-1 12.385 0 11.006-.15 11.907-2.314 13.941-3.025 2.841-8.931 2.929-11.686.174-1.787-1.787-2-3.333-2-14.5V112h-5zm34.229-10.363c-.699.282-1.955 1.834-2.791 3.45-2.156 4.17-.371 7.29 7.062 12.342 4.581 3.113 6.076 4.737 6.322 6.869.607 5.256-4.264 7.542-11.072 5.196-2.062-.711-3.75-.884-3.75-.384 0 1.393 4.679 2.858 9.131 2.858 6.677 0 10.779-3.167 10.837-8.365.034-3.012-1.544-4.74-9.968-10.919-2.945-2.16-4.604-4.18-4.801-5.844-.465-3.937 1.509-4.84 7.301-3.342 5.474 1.416 6.036 1.308 5.155-.987-.445-1.158-2.034-1.523-6.374-1.464-3.179.043-6.353.309-7.052.59M70 120.611v6.612l3.75-.662c4.057-.717 7.25-3.655 7.25-6.672 0-3.056-3.608-5.889-7.5-5.889H70zm114.152 3.639c-3.212 8.105-3.248 7.969 2.098 7.929 2.613-.02 5.151-.068 5.64-.108.981-.078-4.004-13.031-5.024-13.056-.348-.008-1.57 2.347-2.714 5.235M95.254 157.5c-.012 4.045.188 5.049.614 3.082.887-4.097 3.132-4.574 3.132-.665 0 1.696.479 3.083 1.063 3.083.598 0 .926-1.424.75-3.25-.237-2.461-.845-3.326-2.502-3.561a3.11 3.11 0 0 1-2.613-2.5c-.234-1.204-.434.511-.444 3.811m60.996-4.754c-1.943.654-1.472 4.098.75 5.486 1.1.687 2 2.041 2 3.009 0 .967.45 1.759 1 1.759 2.032 0 .916-3.895-1.652-5.765-2.917-2.125-2.505-4.35.653-3.524 1.099.287 1.999.297 1.999.022 0-.766-3.342-1.461-4.75-.987M57 158c0 2.75.45 5 1 5s1-1.092 1-2.427c0-1.47.69-2.607 1.75-2.884 1.572-.41 1.56-.469-.117-.573-1.354-.084-1.723-.665-1.343-2.116.34-1.3.03-2-.884-2-1.021 0-1.406 1.37-1.406 5m51.5-4c.34.55.816 1 1.059 1s.441-.45.441-1-.477-1-1.059-1-.781.45-.441 1m60.5 4.941c0 2.168.45 4.219 1 4.559.611.378 1-1.156 1-3.941 0-2.507-.45-4.559-1-4.559s-1 1.773-1 3.941m-96.75-2.252c1.164.304 1.75 1.438 1.75 3.384 0 1.61.36 2.927.799 2.927s.616-1.575.391-3.5c-.331-2.83-.818-3.478-2.549-3.384-1.691.092-1.773.212-.391.573M83 157.893c0 1.041.704 2.163 1.563 2.493.86.33 1.284 1.053.941 1.607-.342.554-.145 1.007.437 1.007 1.621 0 1.259-2.986-.441-3.638-2.021-.776-1.896-2.112.25-2.673 1.317-.344 1.193-.486-.5-.573-1.582-.082-2.25.446-2.25 1.777m25 1.607c0 1.925.45 3.5 1 3.5s1-1.575 1-3.5-.45-3.5-1-3.5-1 1.575-1 3.5m10.04-2.048c-1.479 1.782-1.023 4.721.828 5.338 1.059.353 1.135.038.335-1.391-.667-1.192-.696-2.477-.083-3.623 1.149-2.147.576-2.319-1.08-.324m3.932.496c.911 1.701.877 2.531-.153 3.779-1.111 1.347-1.083 1.52.181 1.102 1.878-.621 2.002-5.995.153-6.611-1.085-.362-1.12-.025-.181 1.73m9.028 1.701c0 1.843.45 3.351 1 3.351s1-1.387 1-3.083c0-3.902 2.227-3.434 3.173.665.635 2.753.663 2.72.5-.582-.152-3.082-.501-3.512-2.923-3.601-2.473-.091-2.75.237-2.75 3.25m49.04-2.197c-1.347 1.623-1.075 4.704.46 5.215.55.183 1-1.242 1-3.167 0-4.05.093-3.919-1.46-2.048m3.932.496c.911 1.701.877 2.531-.153 3.779-1.111 1.347-1.083 1.52.181 1.102 1.878-.621 2.002-5.995.153-6.611-1.085-.362-1.12-.025-.181 1.73m9.028 1.765c0 1.808.45 3.287 1 3.287s1-1.312 1-2.917.563-3.133 1.25-3.398.238-.431-1-.37c-1.855.091-2.25.688-2.25 3.398m11.2-2.513c-1.851 1.851-1.424 4.61.907 5.857 1.524.816 2.41.826 3.2.036.791-.791.484-1.093-1.107-1.093-1.68 0-2.2-.591-2.2-2.5 0-1.556.567-2.5 1.5-2.5.825 0 1.5.45 1.5 1s.436 1 .969 1 .709-.675.393-1.5c-.692-1.801-3.498-1.964-5.162-.3m-133.754 3.887c-.369.598-.171 1.588.441 2.2.817.817 1.113.528 1.113-1.087q0-3.623-1.554-1.113"/><path fill="#1976D2" fill-opacity=".104" fill-rule="evenodd" d="M67.81 45.368c-11.43 3.15-19.642 13.637-19.766 25.241L48 74.718l-13.246.72c-7.285.396-13.384.859-13.553 1.028-.337.336 6.704 47.758 17.909 120.63l2.091 13.595 13.149-4.254c7.233-2.34 21.7-7.01 32.15-10.379 19.008-6.127 49.901-17.99 49.054-18.838-.917-.916-29.928 7.251-58.168 16.374C61.373 198.767 47.645 203 46.879 203c-1.037 0-2.104-4.657-4.181-18.25-1.534-10.037-4.098-26.8-5.699-37.25s-4.277-28-5.948-39-3.314-21.618-3.651-23.596l-.612-3.596 10.733-.694c5.903-.381 10.902-.524 11.11-.317.207.208.846 2.916 1.419 6.018.95 5.138.85 5.902-1.132 8.582-4.027 5.446.4 12.766 7.079 11.704 6.664-1.059 8.368-8.433 2.994-12.955-2.522-2.123-3.11-3.493-3.63-8.462l-.619-5.929 13.879-.679c7.633-.374 17.414-1.134 21.734-1.69 4.32-.555 8.05-.814 8.29-.574.24.239.799 2.734 1.243 5.544.687 4.344.531 5.36-1.04 6.782-4.42 4-.54 12.379 5.716 12.347 3.495-.019 4.75-.751 6.286-3.669 1.799-3.418 1.389-5.231-1.936-8.556-2.232-2.231-3.311-4.494-3.899-8.173-.447-2.798-.7-5.208-.561-5.357.139-.148 4.256-.892 9.149-1.653l8.897-1.383-9.231-.097c-9.23-.097-9.231-.097-9.819-2.847-2.221-10.377-7.611-17.773-15.726-21.58-6.666-3.125-13.893-3.961-19.914-2.302m-.31 5.854c-7.642 2.709-13.454 10.27-13.804 17.957L53.5 73.5l6-.036c3.3-.019 13.356-.421 22.346-.893l16.347-.858-.588-2.936C94.883 55.166 80.322 46.675 67.5 51.222M12.731 88.645c-1.459 6.073-4.063 30.278-9.236 85.855-.87 9.35-1.918 20.456-2.329 24.68-.411 4.223-.504 7.56-.207 7.415 13.307-6.497 21.083-6.77 29.527-1.04l3.724 2.527-2.167-2.754c-1.192-1.515-3.77-3.896-5.729-5.291-3.097-2.206-4.604-2.537-11.53-2.537H6.816l.654-7.5c.36-4.125 2.211-23.475 4.114-43 3.909-40.109 5.048-59.409 3.709-62.855-.795-2.048-1.13-1.461-2.562 4.5M53 127.094c0 14.239.089 14.906 2 14.906 1.907 0 2-.667 2-14.383 0-13.543-.117-14.414-2-14.907-1.934-.505-2-.03-2 14.384m12.417-14.177c-.229.229-.417 6.866-.417 14.75 0 13.666.093 14.333 2 14.333 1.81 0 2-.667 2-7 0-6.633.12-7 2.295-7 1.726 0 3.588 1.86 7.509 7.5 4.751 6.834 7.267 8.813 8.554 6.73.262-.424-1.937-3.687-4.888-7.25-5.71-6.898-6.266-7.98-4.105-7.98.751 0 2.551-.933 4-2.073 5.168-4.065 2.209-11.791-4.615-12.051-9.162-.348-11.953-.339-12.333.041M95 127.25V142h9c5.676 0 9-.392 9-1.061 0-.712-2.3-.833-7-.37l-7 .689v-14.153l5.25-.368 5.25-.367-5.25-.185L99 126v-12.233l6.5.414c4.126.263 6.5.031 6.5-.634 0-.647-3.244-1.047-8.5-1.047l-8.5-.001zm26.216 0 .216 15.25.315-12.25c.173-6.737.638-12.237 1.034-12.22.395.016 3.766 3.954 7.491 8.75s8.1 10.295 9.723 12.22l2.951 3.5-.109-6.5c-.06-3.575-.304-5.488-.543-4.25-.238 1.238-.739 2.226-1.114 2.196-.374-.03-3.603-3.866-7.176-8.526C126.33 115.413 123.267 112 121.96 112c-.581 0-.875 6.029-.744 15.25m21.094-9.75c.005 3.3.192 4.529.415 2.732s.218-4.497-.01-6c-.229-1.503-.411-.032-.405 3.268m11.44-4.742c-1.568.348-1.75 1.89-1.75 14.815V142h9c5.676 0 9-.392 9-1.061 0-.712-2.3-.833-7-.37l-7 .689v-14.153l5.25-.368 5.25-.367-5.25-.185L156 126v-12.226l7 .396c4.404.249 6.999.012 6.998-.637-.002-1.002-12.536-1.599-16.248-.775m32.123 3.837a7944 7944 0 0 1-6.523 14.81c-2.405 5.448-4.143 10.135-3.862 10.417.627.627.666.569 2.775-4.072l1.705-3.75h14.048l1.601 4c1.077 2.693 2.218 4 3.492 4 1.04 0 1.891-.271 1.891-.602 0-.676-12.052-28.671-12.615-29.303-.198-.222-1.329 1.803-2.512 4.5m20.452-3c-.303.789-.377 6.135-.164 11.879.319 8.61.75 10.933 2.459 13.234 2.672 3.601 7.59 4.862 13.123 3.366 6.302-1.704 7.297-4.345 7.077-18.774l-.179-11.8-.571 12.84c-.53 11.941-.735 12.974-2.931 14.75-3.323 2.689-10.22 2.583-12.734-.195-1.619-1.788-1.941-3.919-2.143-14.189-.199-10.113-.494-12.123-1.812-12.316-.865-.127-1.822.415-2.125 1.205m33.31.478c-2.769 2.177-3.403 5.624-1.64 8.917.547 1.022 3.65 3.472 6.896 5.444 6.54 3.973 7.501 5.404 6.101 9.087-1.431 3.765-5.1 5.063-10.086 3.569-2.256-.676-4.346-.983-4.646-.683-1.041 1.041 3.269 2.016 9.075 2.055 5.176.034 6.107-.279 8.25-2.768 4.256-4.944 2.637-8.657-6.254-14.345-6.301-4.031-8.124-6.999-6.342-10.329.961-1.796 1.765-2.114 4.103-1.627l5.908 1.232c1.75.365 3 .208 3-.375 0-1.09-4.637-2.25-8.99-2.25-1.507 0-3.926.933-5.375 2.073m-169.968.594c-.367.366-.667 3.35-.667 6.63v5.963l4.689-.528c2.88-.325 5.195-1.221 6-2.322 1.871-2.558 1.619-6.821-.518-8.755-1.798-1.628-8.199-2.293-9.504-.988m114.01 9.853c-1.472 3.586-2.677 6.961-2.677 7.5s2.748.98 6.107.98c5.396 0 6.032-.204 5.46-1.75-3.226-8.728-5.15-13.25-5.634-13.25-.318 0-1.783 2.934-3.256 6.52M58.3 158c0 3.025.187 4.262.416 2.75s.229-3.988 0-5.5-.416-.275-.416 2.75m37 0c0 3.025.187 4.262.416 2.75s.229-3.988 0-5.5-.416-.275-.416 2.75m59.7-2.516c0 .707 1.16 2.046 2.578 2.975 1.571 1.03 2.357 2.267 2.012 3.167-.319.832-.135 1.211.421.867 1.677-1.036 1.113-2.574-2.011-5.493-1.659-1.55-3-2.228-3-1.516m-81.182 4.086c.221 1.887.724 3.43 1.118 3.43.873 0 .107-5.855-.842-6.442-.372-.23-.496 1.126-.276 3.012m62.103.181c.478 3.451.547 3.521.877.877.197-1.579-.036-3.266-.519-3.749-.503-.503-.656.722-.358 2.872m71.643-2.458c.376.986.935 1.541 1.243 1.233s.001-1.114-.683-1.793c-.988-.98-1.102-.865-.56.56M83 157.602c0 .32.9 1.727 2 3.125 1.19 1.512 2 1.97 2 1.13 0-.777-.9-2.183-2-3.125s-2-1.45-2-1.13M109.232 160c0 1.925.206 2.713.457 1.75.252-.963.252-2.537 0-3.5-.251-.963-.457-.175-.457 1.75m8.435-2.333c-.903.903-.846 4.104.083 4.678.412.255.75-.843.75-2.44 0-1.598-.037-2.905-.083-2.905s-.384.3-.75.667m5.064 1.413c.354 1.352.807 1.806 1.057 1.057.24-.722-.038-1.787-.62-2.369-.742-.742-.872-.351-.437 1.312m9.501.92c0 1.925.206 2.713.457 1.75.252-.963.252-2.537 0-3.5-.251-.963-.457-.175-.457 1.75m47.153-1.561c-.304.792-.14 2.177.365 3.078.712 1.273.917.952.917-1.439 0-3.35-.42-3.886-1.282-1.639m5.346.641c.354 1.352.807 1.806 1.057 1.057.24-.722-.038-1.787-.62-2.369-.742-.742-.872-.351-.437 1.312m8.653-.638c-.304.792-.377 2.255-.161 3.25.244 1.129.586.587.911-1.442.544-3.406.191-4.259-.75-1.808M70 162c0 .55.477 1 1.059 1s.781-.45.441-1-.816-1-1.059-1-.441.45-.441 1m134 0c0 .55.477 1 1.059 1s.781-.45.441-1-.816-1-1.059-1-.441.45-.441 1"/></svg>